<svg fill="#1A1A1A" xmlns="http://www.w3.org/2000/svg"  viewBox="0 0 30 30" width="60px" height="60px"><path d="M 15 4 C 11.638 4 7.0549062 4.0537656 6.1289062 4.1347656 C 5.0819063 4.7557656 3.02 6.8994844 3 7.5214844 L 3 8.5507812 C 3 9.8547812 4.2182187 11 5.3242188 11 C 6.6532187 11 7.7617188 9.8987969 7.7617188 8.5917969 C 7.7617188 9.8987969 8.8292031 11 10.158203 11 C 11.487203 11 12.523437 9.8987969 12.523438 8.5917969 C 12.523438 9.8987969 13.659281 11 14.988281 11 L 15.013672 11 C 16.342672 11 17.478516 9.8987969 17.478516 8.5917969 C 17.478516 9.8987969 18.513797 11 19.841797 11 C 21.170797 11 22.240234 9.8987969 22.240234 8.5917969 C 22.240234 9.8987969 23.346781 11 24.675781 11 C 25.780781 11 27 9.8547812 27 8.5507812 L 27 7.5214844 C 26.98 6.9004844 24.918094 4.7557656 23.871094 4.1347656 C 20.617094 4.0197656 18.362 4 15 4 z M 12.484375 11.636719 C 12.357375 11.857719 12.199625 12.060281 12.015625 12.238281 C 11.513625 12.728281 10.826359 13.033203 10.068359 13.033203 C 9.3393594 13.034203 8.6381875 12.748281 8.1171875 12.238281 C 7.9351875 12.060281 7.797875 11.870437 7.671875 11.648438 C 7.545875 11.870437 7.3685469 12.059281 7.1855469 12.238281 C 6.6645469 12.748281 5.963375 13.034203 5.234375 13.033203 C 5.143375 13.033203 5.0496562 13.007469 4.9726562 12.980469 C 4.8656562 14.092469 4.8421719 14.541406 4.8261719 15.316406 L 4.8261719 15.320312 C 4.8241719 15.714313 4.8223125 16.038281 4.8203125 16.488281 C 4.8413125 18.822281 4.5896094 24.052891 5.8496094 25.337891 C 7.8026094 25.791891 11.395 25.999 15 26 C 18.605 25.999 22.197391 25.790937 24.150391 25.335938 C 25.410391 24.050937 25.158688 18.819328 25.179688 16.486328 C 25.177688 16.036328 25.175828 15.714313 25.173828 15.320312 L 25.173828 15.316406 C 25.157828 14.541406 25.091375 14.092469 24.984375 12.980469 C 24.907375 13.006469 24.811703 13.03125 24.720703 13.03125 C 23.991703 13.03225 23.290531 12.748281 22.769531 12.238281 C 22.587531 12.060281 22.412156 11.870437 22.285156 11.648438 L 22.283203 11.648438 C 22.156203 11.870437 22.018891 12.060281 21.837891 12.238281 C 21.316891 12.748281 20.615719 13.033203 19.886719 13.033203 C 19.128719 13.033203 18.441453 12.729281 17.939453 12.238281 C 17.756453 12.060281 17.600656 11.857719 17.472656 11.636719 C 17.346656 11.857719 17.190766 12.060281 17.009766 12.238281 C 16.488766 12.748281 15.787594 13.033203 15.058594 13.033203 C 15.032594 13.033203 15.004516 13.03225 14.978516 13.03125 C 14.952516 13.03225 14.925437 13.033203 14.898438 13.033203 C 14.169438 13.034203 13.468266 12.748281 12.947266 12.238281 C 12.765266 12.060281 12.609375 11.857719 12.484375 11.636719 z M 10.966797 14.644531 L 10.966797 14.646484 C 11.678797 14.647484 12.311703 14.646953 13.095703 15.501953 C 13.712079 15.437019 14.355654 15.403365 15 15.404297 C 15 15.404297 15.001953 15.404297 15.001953 15.404297 C 15.646297 15.403365 16.289875 15.437019 16.90625 15.501953 C 17.69025 14.646953 18.321203 14.647484 19.033203 14.646484 L 19.035156 14.646484 L 19.035156 14.644531 C 19.371156 14.644531 20.717297 14.644344 21.654297 17.277344 L 22.660156 20.890625 C 23.406156 23.577625 22.421359 23.642531 21.193359 23.644531 C 19.371359 23.576531 18.363281 22.254641 18.363281 20.931641 C 17.354281 21.096641 16.178953 21.179688 15.001953 21.179688 C 13.824953 21.179688 12.646672 21.096641 11.638672 20.931641 C 11.638672 22.254641 10.630594 23.576531 8.8085938 23.644531 C 7.5795937 23.642531 6.5938437 23.577625 7.3398438 20.890625 L 8.3476562 17.277344 C 9.2846562 14.644344 10.629797 14.644531 10.966797 14.644531 z M 15 16.632812 C 14.999 16.634812 13.374984 18.12625 13.083984 18.65625 L 14.146484 18.613281 L 14.146484 19.539062 C 14.146484 19.582062 14.574 19.566875 15 19.546875 C 15.427 19.566875 15.853516 19.582062 15.853516 19.539062 L 15.853516 18.613281 L 16.916016 18.65625 C 16.625016 18.12525 15 16.632812 15 16.632812 z"/></svg>